HIERARCHY
ROOT Hips
{
	OFFSET	0.00	0.00	0.00
	CHANNELS 6 Xposition Yposition Zposition Zrotation Xrotation Yrotation
	JOINT LeftUpLeg
	{
		OFFSET	 0.126116	-0.065224	 0.014019
		CHANNELS 3 Zrotation Xrotation Yrotation
		JOINT LeftLeg
		{
			OFFSET	 0.000000	 0.569914	 0.000000
			CHANNELS 3 Zrotation Xrotation Yrotation
			JOINT LeftFoot
			{
				OFFSET	 0.000000	 0.544423	 0.000000
				CHANNELS 3 Zrotation Xrotation Yrotation
				JOINT LeftToeBase
				{
					OFFSET	 0.000000	 0.207117	 0.000000
					CHANNELS 3 Zrotation Xrotation Yrotation
					End Site
					{
						OFFSET	 0.000000	 0.207117	 0.000000
					}
				}
			}
		}
	}
	JOINT RightUpLeg
	{
		OFFSET	-0.124023	-0.065224	 0.008373
		CHANNELS 3 Zrotation Xrotation Yrotation
		JOINT RightLeg
		{
			OFFSET	 0.000000	 0.570047	 0.000000
			CHANNELS 3 Zrotation Xrotation Yrotation
			JOINT RightFoot
			{
				OFFSET	 0.000000	 0.544354	 0.000000
				CHANNELS 3 Zrotation Xrotation Yrotation
				JOINT RightToeBase
				{
					OFFSET	 0.000000	 0.207540	 0.000000
					CHANNELS 3 Zrotation Xrotation Yrotation
					End Site
					{
						OFFSET	 0.000000	 0.207540	 0.000000
					}
				}
			}
		}
	}
	JOINT Spine
	{
		OFFSET	 0.000184	 0.117403	 0.007763
		CHANNELS 3 Zrotation Xrotation Yrotation
		JOINT Spine1
		{
			OFFSET	 0.000000	 0.137269	 0.000000
			CHANNELS 3 Zrotation Xrotation Yrotation
			JOINT Spine2
			{
				OFFSET	 0.000000	 0.156879	 0.000000
				CHANNELS 3 Zrotation Xrotation Yrotation
				JOINT LeftShoulder
				{
					OFFSET	 0.080501	 0.160143	 0.002496
					CHANNELS 3 Zrotation Xrotation Yrotation
					JOINT LeftArm
					{
						OFFSET	 0.000000	 0.164363	 0.000000
						CHANNELS 3 Zrotation Xrotation Yrotation
						JOINT LeftForeArm
						{
							OFFSET	 0.000000	 0.364576	 0.000000
							CHANNELS 3 Zrotation Xrotation Yrotation
							JOINT LeftHand
							{
								OFFSET	 0.000000	 0.360812	 0.000000
								CHANNELS 3 Zrotation Xrotation Yrotation
								JOINT LeftHandIndex1
								{
									OFFSET	 0.000000	 0.086006	 0.000000
									CHANNELS 3 Zrotation Xrotation Yrotation
									JOINT LeftHandIndex2
									{
										OFFSET	 0.000000	 0.047237	 0.000000
										CHANNELS 3 Zrotation Xrotation Yrotation
										JOINT LeftHandIndex3
										{
											OFFSET	-0.004284	 0.038165	 0.000551
											CHANNELS 3 Zrotation Xrotation Yrotation
											End Site
											{
												OFFSET	-0.004284	 0.038165	 0.000551
											}
										}
									}
								}
							}
						}
					}
				}
				JOINT Neck
				{
					OFFSET	 0.000000	 0.176489	 0.000000
					CHANNELS 3 Zrotation Xrotation Yrotation
					JOINT Head
					{
						OFFSET	 0.000000	 0.077941	 0.001747
						CHANNELS 3 Zrotation Xrotation Yrotation
						End Site
						{
							OFFSET	 0.000000	 0.077941	 0.001747
						}
					}
				}
				JOINT RightShoulder
				{
					OFFSET	-0.080363	 0.159706	-0.000306
					CHANNELS 3 Zrotation Xrotation Yrotation
					JOINT RightArm
					{
						OFFSET	 0.000000	 0.164196	 0.000000
						CHANNELS 3 Zrotation Xrotation Yrotation
						JOINT RightForeArm
						{
							OFFSET	 0.000000	 0.365611	 0.000000
							CHANNELS 3 Zrotation Xrotation Yrotation
							JOINT RightHand
							{
								OFFSET	 0.000000	 0.360648	 0.000000
								CHANNELS 3 Zrotation Xrotation Yrotation
								JOINT RightHandIndex1
								{
									OFFSET	 0.000000	 0.069977	 0.000000
									CHANNELS 3 Zrotation Xrotation Yrotation
									JOINT RightHandIndex2
									{
										OFFSET	 0.000000	 0.052305	 0.000000
										CHANNELS 3 Zrotation Xrotation Yrotation
										JOINT RightHandIndex3
										{
											OFFSET	 0.009002	 0.042196	 0.000782
											CHANNELS 3 Zrotation Xrotation Yrotation
											End Site
											{
												OFFSET	 0.009002	 0.042196	 0.000782
											}
										}
									}
								}
							}
						}
					}
				}
			}
		}
	}
}
MOTION
Frames:    6
Frame Time: 0.03333334
 0.905776	 1.193071	-0.135008	 7.399330	-3.739558	-39.754520	-176.002500	 13.199720	-27.136790	 4.776495	-42.086740	 7.257538	 75.442040	 48.926900	-94.821180	 1.398007	 23.660660	-7.474018	 144.302300	 25.380830	 56.242000	-5.075381	-45.748970	-4.821522	-57.602650	 49.607750	 64.376840	-1.914916	 31.246300	 3.766883	-0.622443	 6.749361	 22.364600	-7.276226	 0.198524	 4.856042	 9.032523	 8.013047	-15.084180	-107.413000	-14.574100	 100.112900	 61.175370	 27.467340	-41.066050	 6.672714	-0.217264	-4.376833	 3.782210	 0.426718	 91.485080	-6.057456	 15.599710	-6.344091	-7.185728	 8.703115	 2.130096	 4.963066	-4.014628	-0.346955	 13.684440	-7.970870	-10.099060	 2.083270	-1.623300	-49.283840	 89.030970	-1.217748	-91.496140	-31.237270	 7.942549	 75.980480	-46.445260	-3.851439	 9.505574	 69.080550	-61.176850	-12.343900	-2.905987	 16.233180	-3.317137	 14.390040	 23.815770	-7.022400	-8.239867	-2.131385	 0.447455
 0.935741	 1.212006	-0.125950	 5.175940	-4.106671	-39.265750	-176.680800	 10.024330	-26.421670	 4.114995	-37.893510	 5.704642	 72.461780	 48.983180	-89.933110	 1.398020	 23.660650	-7.474025	 151.017000	 24.235150	 47.707900	-4.266181	-40.799450	-3.658668	-53.168380	 49.369320	 60.375890	-1.687852	 30.128850	 3.646942	-0.252823	 6.247843	 14.839430	-6.649577	 0.105492	 4.406541	 7.404355	 6.514290	-15.505330	-108.731200	-18.692710	 101.280600	 63.254760	 25.898840	-43.160330	 4.981304	-0.247060	 0.335733	 1.461890	-3.144688	 89.396970	-6.657376	 15.570520	-6.123971	-7.222613	 8.837165	 2.155864	 4.963066	-4.014628	-0.346955	 11.832920	-8.574797	-11.521110	 1.648038	 0.105074	-48.332470	 90.527760	 0.657315	-91.921520	-27.904810	 6.236320	 70.652780	-41.851530	-3.534381	 4.931508	 70.513480	-54.517800	-9.137620	-2.904431	 16.141450	-3.475878	 14.400680	 24.082510	-7.098701	-8.239867	-2.131385	 0.447455
 0.962171	 1.231343	-0.116914	 2.921833	-4.457211	-38.797910	-177.198600	 6.273553	-25.676040	 3.409384	-32.822350	 3.990518	 68.821580	 48.957690	-84.350070	 1.398033	 23.660640	-7.474033	 157.070500	 21.249890	 39.275490	-3.293095	-33.684080	-2.317648	-46.536150	 48.162700	 54.469820	-1.466145	 29.011950	 3.533477	 0.063872	 5.764814	 6.908187	-5.747567	-0.419919	 3.720474	 5.656426	 5.247635	-15.944610	-109.994200	-22.833810	 102.377300	 65.407130	 24.864040	-45.356580	 6.168816	-0.225560	 5.062439	-1.446861	-6.933073	 85.850510	-7.256574	 15.539150	-5.904399	-7.259542	 8.971084	 2.181706	 4.963066	-4.014628	-0.346955	 9.965284	-9.132318	-12.963330	 1.165951	 1.820616	-47.334300	 92.038700	 2.519179	-92.395740	-25.564080	 4.784841	 64.947880	-40.601360	-3.455062	 0.283234	 71.073970	-48.695840	-5.153452	-2.903141	 16.049810	-3.634407	 14.411740	 24.349010	-7.175151	-8.239867	-2.131385	 0.447455
 0.978319	 1.243990	-0.110131	 1.721050	-4.647155	-39.206260	-177.827500	 3.609037	-26.045600	 2.882368	-28.607650	 2.590307	 66.241340	 48.971280	-80.297410	 1.398039	 23.660630	-7.474036	 160.747100	 18.578270	 33.847150	-2.556208	-27.361560	-1.232231	-42.184210	 46.661990	 50.067250	-1.324760	 28.221780	 3.457981	 0.359090	 5.317246	-1.185924	-4.666214	-0.448864	 3.271433	 3.830409	 4.048604	-15.833260	-110.862500	-25.977910	 102.841700	 67.067370	 24.654470	-46.552610	 7.873994	-0.197951	 9.888092	-5.461544	-7.171623	 81.847980	-7.541635	 15.637330	-5.776560	-7.290212	 9.057677	 2.199215	 4.963066	-4.014628	-0.346955	 8.310175	-9.640875	-13.728750	 0.821966	 2.733012	-46.442430	 92.801000	 4.311906	-92.876760	-24.128370	 4.531686	 61.111810	-41.174490	-3.501573	-4.690792	 68.002130	-43.797840	-3.510428	-2.901718	 15.955130	-3.798177	 14.423580	 24.624250	-7.254308	-8.239867	-2.131385	 0.447455
 0.983906	 1.249354	-0.105216	 1.500253	-4.712568	-40.409670	-178.513100	 2.324493	-27.410590	 2.585087	-26.067740	 1.573571	 65.093370	 49.253980	-78.379680	 1.398039	 23.660620	-7.474037	 162.159100	 16.734530	 30.954930	-2.015623	-22.200540	-0.360444	-39.571410	 45.175580	 46.799790	-1.256524	 27.744680	 3.415031	 0.571292	 4.938966	-9.046040	-3.123354	-0.043376	 2.924098	 1.803373	 2.926344	-15.218830	-111.398700	-28.144780	 102.748500	 68.357370	 25.327760	-46.930660	 9.574934	-0.174968	 14.654360	-9.975190	-4.260784	 77.416010	-7.535151	 15.853240	-5.734514	-7.314549	 9.099479	 2.208742	 4.963066	-4.014628	-0.346955	 6.888422	-10.124580	-13.858950	 0.631594	 2.909766	-45.687820	 92.865170	 6.016913	-93.323590	-23.399720	 6.129263	 58.875260	-44.331670	-3.695143	-10.048020	 63.425010	-39.739730	-2.851206	-2.900242	 15.859510	-3.963588	 14.435980	 24.902210	-7.334461	-8.239867	-2.131385	 0.447455
 0.984177	 1.251746	-0.102342	 1.241064	-4.761561	-41.638930	-178.755500	 1.427889	-28.723650	 2.393077	-24.537600	 0.389125	 64.046420	 49.909770	-76.926350	 1.398039	 23.660610	-7.474038	 163.254100	 15.158220	 28.121900	-1.615099	-18.109340	 0.674525	-37.451610	 44.262860	 44.053310	-1.187769	 27.258890	 3.372152	 0.692525	 4.609426	-16.439410	-1.059190	 1.191030	 2.334427	-0.541018	 1.379691	-14.538580	-111.960600	-30.349580	 102.627400	 69.571390	 25.467090	-47.131660	 11.247720	-0.155421	 19.359450	-14.097760	-0.709631	 71.350200	-7.528711	 16.073060	-5.691686	-7.339338	 9.142035	 2.218461	 4.963066	-4.014628	-0.346955	 5.437638	-10.613570	-14.004210	 0.421453	 3.095626	-44.904670	 92.944500	 7.752028	-93.782080	-22.752030	 7.502283	 56.666880	-47.598570	-3.869322	-15.317380	 59.285910	-36.045090	-0.246872	-2.899035	 15.762160	-4.131913	 14.449080	 25.185190	-7.416321	-8.239867	-2.131385	 0.447455
